<mxfile host="Electron" modified="2024-09-14T18:16:57.846Z" agent="Mozilla/5.0 (Windows NT 10.0; Win64; x64) AppleWebKit/537.36 (KHTML, like Gecko) draw.io/24.6.4 Chrome/124.0.6367.207 Electron/30.0.6 Safari/537.36" etag="t2alaW82EiAmpCmv2HfV" version="24.6.4" type="device">
  <diagram name="Страница — 1" id="zjySz6PzMCHwVWiWCfYt">
    <mxGraphModel dx="653" dy="1938" grid="1" gridSize="10" guides="1" tooltips="1" connect="1" arrows="1" fold="1" page="1" pageScale="1" pageWidth="827" pageHeight="1169" math="0" shadow="0">
      <root>
        <mxCell id="0" />
        <mxCell id="1" parent="0" />
        <mxCell id="Z2BE-C4bj-5tcC9fpLzT-1" value="S" style="text;html=1;align=center;verticalAlign=middle;whiteSpace=wrap;rounded=0;" parent="1" vertex="1">
          <mxGeometry x="430" y="60" width="60" height="30" as="geometry" />
        </mxCell>
        <mxCell id="Z2BE-C4bj-5tcC9fpLzT-2" value="c" style="text;html=1;align=center;verticalAlign=middle;whiteSpace=wrap;rounded=0;" parent="1" vertex="1">
          <mxGeometry x="180" y="150" width="60" height="30" as="geometry" />
        </mxCell>
        <mxCell id="Z2BE-C4bj-5tcC9fpLzT-3" value="A" style="text;html=1;align=center;verticalAlign=middle;whiteSpace=wrap;rounded=0;" parent="1" vertex="1">
          <mxGeometry x="270" y="150" width="60" height="30" as="geometry" />
        </mxCell>
        <mxCell id="Z2BE-C4bj-5tcC9fpLzT-4" value="B" style="text;html=1;align=center;verticalAlign=middle;whiteSpace=wrap;rounded=0;" parent="1" vertex="1">
          <mxGeometry x="250" y="200" width="60" height="30" as="geometry" />
        </mxCell>
        <mxCell id="Z2BE-C4bj-5tcC9fpLzT-5" value="a" style="text;html=1;align=center;verticalAlign=middle;whiteSpace=wrap;rounded=0;" parent="1" vertex="1">
          <mxGeometry x="340" y="200" width="60" height="30" as="geometry" />
        </mxCell>
        <mxCell id="Z2BE-C4bj-5tcC9fpLzT-6" value="e" style="text;html=1;align=center;verticalAlign=middle;whiteSpace=wrap;rounded=0;" parent="1" vertex="1">
          <mxGeometry x="470" y="320" width="60" height="30" as="geometry" />
        </mxCell>
        <mxCell id="Z2BE-C4bj-5tcC9fpLzT-7" value="b" style="text;html=1;align=center;verticalAlign=middle;whiteSpace=wrap;rounded=0;" parent="1" vertex="1">
          <mxGeometry x="250" y="270" width="60" height="30" as="geometry" />
        </mxCell>
        <mxCell id="Z2BE-C4bj-5tcC9fpLzT-8" value="B" style="text;html=1;align=center;verticalAlign=middle;whiteSpace=wrap;rounded=0;" parent="1" vertex="1">
          <mxGeometry x="430" y="200" width="60" height="30" as="geometry" />
        </mxCell>
        <mxCell id="Z2BE-C4bj-5tcC9fpLzT-9" value="a" style="text;html=1;align=center;verticalAlign=middle;whiteSpace=wrap;rounded=0;" parent="1" vertex="1">
          <mxGeometry x="400" y="260" width="60" height="30" as="geometry" />
        </mxCell>
        <mxCell id="Z2BE-C4bj-5tcC9fpLzT-10" value="A" style="text;html=1;align=center;verticalAlign=middle;whiteSpace=wrap;rounded=0;" parent="1" vertex="1">
          <mxGeometry x="470" y="260" width="60" height="30" as="geometry" />
        </mxCell>
        <mxCell id="Z2BE-C4bj-5tcC9fpLzT-11" value="b" style="text;html=1;align=center;verticalAlign=middle;whiteSpace=wrap;rounded=0;" parent="1" vertex="1">
          <mxGeometry x="650" y="150" width="60" height="30" as="geometry" />
        </mxCell>
        <mxCell id="Z2BE-C4bj-5tcC9fpLzT-12" value="e" style="text;html=1;align=center;verticalAlign=middle;whiteSpace=wrap;rounded=0;" parent="1" vertex="1">
          <mxGeometry x="740" y="210" width="60" height="30" as="geometry" />
        </mxCell>
        <mxCell id="Z2BE-C4bj-5tcC9fpLzT-13" value="A" style="text;html=1;align=center;verticalAlign=middle;whiteSpace=wrap;rounded=0;" parent="1" vertex="1">
          <mxGeometry x="740" y="150" width="60" height="30" as="geometry" />
        </mxCell>
        <mxCell id="Z2BE-C4bj-5tcC9fpLzT-14" value="" style="endArrow=none;html=1;rounded=0;entryX=0.5;entryY=1;entryDx=0;entryDy=0;" parent="1" source="Z2BE-C4bj-5tcC9fpLzT-2" target="Z2BE-C4bj-5tcC9fpLzT-1" edge="1">
          <mxGeometry width="50" height="50" relative="1" as="geometry">
            <mxPoint x="350" y="120" as="sourcePoint" />
            <mxPoint x="400" y="70" as="targetPoint" />
          </mxGeometry>
        </mxCell>
        <mxCell id="Z2BE-C4bj-5tcC9fpLzT-15" value="" style="endArrow=none;html=1;rounded=0;entryX=0.5;entryY=1;entryDx=0;entryDy=0;" parent="1" source="Z2BE-C4bj-5tcC9fpLzT-3" target="Z2BE-C4bj-5tcC9fpLzT-1" edge="1">
          <mxGeometry width="50" height="50" relative="1" as="geometry">
            <mxPoint x="480" y="140" as="sourcePoint" />
            <mxPoint x="430" y="120" as="targetPoint" />
            <Array as="points" />
          </mxGeometry>
        </mxCell>
        <mxCell id="Z2BE-C4bj-5tcC9fpLzT-16" value="" style="endArrow=none;html=1;rounded=0;exitX=0.5;exitY=1;exitDx=0;exitDy=0;" parent="1" source="Z2BE-C4bj-5tcC9fpLzT-1" target="Z2BE-C4bj-5tcC9fpLzT-11" edge="1">
          <mxGeometry width="50" height="50" relative="1" as="geometry">
            <mxPoint x="460" y="300" as="sourcePoint" />
            <mxPoint x="510" y="250" as="targetPoint" />
          </mxGeometry>
        </mxCell>
        <mxCell id="Z2BE-C4bj-5tcC9fpLzT-18" value="" style="endArrow=none;html=1;rounded=0;exitX=0.5;exitY=1;exitDx=0;exitDy=0;" parent="1" source="Z2BE-C4bj-5tcC9fpLzT-1" target="Z2BE-C4bj-5tcC9fpLzT-13" edge="1">
          <mxGeometry width="50" height="50" relative="1" as="geometry">
            <mxPoint x="580" y="60" as="sourcePoint" />
            <mxPoint x="630" y="10" as="targetPoint" />
          </mxGeometry>
        </mxCell>
        <mxCell id="Z2BE-C4bj-5tcC9fpLzT-19" value="" style="endArrow=none;html=1;rounded=0;entryX=0.5;entryY=1;entryDx=0;entryDy=0;" parent="1" source="Z2BE-C4bj-5tcC9fpLzT-4" target="Z2BE-C4bj-5tcC9fpLzT-3" edge="1">
          <mxGeometry width="50" height="50" relative="1" as="geometry">
            <mxPoint x="490" y="330" as="sourcePoint" />
            <mxPoint x="540" y="280" as="targetPoint" />
          </mxGeometry>
        </mxCell>
        <mxCell id="Z2BE-C4bj-5tcC9fpLzT-20" value="" style="endArrow=none;html=1;rounded=0;exitX=0.5;exitY=1;exitDx=0;exitDy=0;" parent="1" source="Z2BE-C4bj-5tcC9fpLzT-3" target="Z2BE-C4bj-5tcC9fpLzT-5" edge="1">
          <mxGeometry width="50" height="50" relative="1" as="geometry">
            <mxPoint x="410" y="190" as="sourcePoint" />
            <mxPoint x="460" y="140" as="targetPoint" />
          </mxGeometry>
        </mxCell>
        <mxCell id="Z2BE-C4bj-5tcC9fpLzT-21" value="" style="endArrow=none;html=1;rounded=0;" parent="1" source="Z2BE-C4bj-5tcC9fpLzT-8" edge="1">
          <mxGeometry width="50" height="50" relative="1" as="geometry">
            <mxPoint x="510" y="350" as="sourcePoint" />
            <mxPoint x="300" y="180" as="targetPoint" />
          </mxGeometry>
        </mxCell>
        <mxCell id="Z2BE-C4bj-5tcC9fpLzT-22" value="" style="endArrow=none;html=1;rounded=0;entryX=0.5;entryY=1;entryDx=0;entryDy=0;" parent="1" source="Z2BE-C4bj-5tcC9fpLzT-9" target="Z2BE-C4bj-5tcC9fpLzT-8" edge="1">
          <mxGeometry width="50" height="50" relative="1" as="geometry">
            <mxPoint x="630" y="370" as="sourcePoint" />
            <mxPoint x="680" y="320" as="targetPoint" />
          </mxGeometry>
        </mxCell>
        <mxCell id="Z2BE-C4bj-5tcC9fpLzT-23" value="" style="endArrow=none;html=1;rounded=0;entryX=0.5;entryY=1;entryDx=0;entryDy=0;" parent="1" source="Z2BE-C4bj-5tcC9fpLzT-10" target="Z2BE-C4bj-5tcC9fpLzT-8" edge="1">
          <mxGeometry width="50" height="50" relative="1" as="geometry">
            <mxPoint x="620" y="350" as="sourcePoint" />
            <mxPoint x="670" y="300" as="targetPoint" />
          </mxGeometry>
        </mxCell>
        <mxCell id="Z2BE-C4bj-5tcC9fpLzT-24" value="" style="endArrow=none;html=1;rounded=0;entryX=0.5;entryY=1;entryDx=0;entryDy=0;" parent="1" source="Z2BE-C4bj-5tcC9fpLzT-6" target="Z2BE-C4bj-5tcC9fpLzT-10" edge="1">
          <mxGeometry width="50" height="50" relative="1" as="geometry">
            <mxPoint x="540" y="380" as="sourcePoint" />
            <mxPoint x="590" y="330" as="targetPoint" />
          </mxGeometry>
        </mxCell>
        <mxCell id="Z2BE-C4bj-5tcC9fpLzT-25" value="" style="endArrow=none;html=1;rounded=0;entryX=0.5;entryY=1;entryDx=0;entryDy=0;" parent="1" source="Z2BE-C4bj-5tcC9fpLzT-12" target="Z2BE-C4bj-5tcC9fpLzT-13" edge="1">
          <mxGeometry width="50" height="50" relative="1" as="geometry">
            <mxPoint x="550" y="230" as="sourcePoint" />
            <mxPoint x="600" y="180" as="targetPoint" />
          </mxGeometry>
        </mxCell>
        <mxCell id="Z2BE-C4bj-5tcC9fpLzT-26" value="" style="endArrow=none;html=1;rounded=0;exitX=0.5;exitY=1;exitDx=0;exitDy=0;" parent="1" source="Z2BE-C4bj-5tcC9fpLzT-4" target="Z2BE-C4bj-5tcC9fpLzT-7" edge="1">
          <mxGeometry width="50" height="50" relative="1" as="geometry">
            <mxPoint x="680" y="220" as="sourcePoint" />
            <mxPoint x="680" y="190" as="targetPoint" />
          </mxGeometry>
        </mxCell>
        <mxCell id="Z2BE-C4bj-5tcC9fpLzT-33" value="S" style="text;html=1;align=center;verticalAlign=middle;whiteSpace=wrap;rounded=0;" parent="1" vertex="1">
          <mxGeometry x="1077" y="50" width="60" height="30" as="geometry" />
        </mxCell>
        <mxCell id="Z2BE-C4bj-5tcC9fpLzT-34" value="a" style="text;html=1;align=center;verticalAlign=middle;whiteSpace=wrap;rounded=0;" parent="1" vertex="1">
          <mxGeometry x="1170" y="140" width="60" height="30" as="geometry" />
        </mxCell>
        <mxCell id="Z2BE-C4bj-5tcC9fpLzT-39" value="b" style="text;html=1;align=center;verticalAlign=middle;whiteSpace=wrap;rounded=0;" parent="1" vertex="1">
          <mxGeometry x="1077" y="140" width="60" height="30" as="geometry" />
        </mxCell>
        <mxCell id="Z2BE-C4bj-5tcC9fpLzT-40" value="e" style="text;html=1;align=center;verticalAlign=middle;whiteSpace=wrap;rounded=0;" parent="1" vertex="1">
          <mxGeometry x="980" y="200" width="60" height="30" as="geometry" />
        </mxCell>
        <mxCell id="Z2BE-C4bj-5tcC9fpLzT-41" value="A" style="text;html=1;align=center;verticalAlign=middle;whiteSpace=wrap;rounded=0;" parent="1" vertex="1">
          <mxGeometry x="980" y="140" width="60" height="30" as="geometry" />
        </mxCell>
        <mxCell id="Z2BE-C4bj-5tcC9fpLzT-42" value="" style="endArrow=none;html=1;rounded=0;entryX=0.5;entryY=1;entryDx=0;entryDy=0;" parent="1" source="Z2BE-C4bj-5tcC9fpLzT-34" target="Z2BE-C4bj-5tcC9fpLzT-33" edge="1">
          <mxGeometry width="50" height="50" relative="1" as="geometry">
            <mxPoint x="997" y="110" as="sourcePoint" />
            <mxPoint x="1047" y="60" as="targetPoint" />
          </mxGeometry>
        </mxCell>
        <mxCell id="Z2BE-C4bj-5tcC9fpLzT-44" value="" style="endArrow=none;html=1;rounded=0;exitX=0.5;exitY=1;exitDx=0;exitDy=0;" parent="1" source="Z2BE-C4bj-5tcC9fpLzT-33" target="Z2BE-C4bj-5tcC9fpLzT-39" edge="1">
          <mxGeometry width="50" height="50" relative="1" as="geometry">
            <mxPoint x="1107" y="290" as="sourcePoint" />
            <mxPoint x="1157" y="240" as="targetPoint" />
          </mxGeometry>
        </mxCell>
        <mxCell id="Z2BE-C4bj-5tcC9fpLzT-45" value="" style="endArrow=none;html=1;rounded=0;exitX=0.5;exitY=1;exitDx=0;exitDy=0;" parent="1" source="Z2BE-C4bj-5tcC9fpLzT-33" target="Z2BE-C4bj-5tcC9fpLzT-41" edge="1">
          <mxGeometry width="50" height="50" relative="1" as="geometry">
            <mxPoint x="1227" y="50" as="sourcePoint" />
            <mxPoint x="1277" as="targetPoint" />
          </mxGeometry>
        </mxCell>
        <mxCell id="Z2BE-C4bj-5tcC9fpLzT-51" value="" style="endArrow=none;html=1;rounded=0;entryX=0.5;entryY=1;entryDx=0;entryDy=0;" parent="1" source="Z2BE-C4bj-5tcC9fpLzT-40" target="Z2BE-C4bj-5tcC9fpLzT-41" edge="1">
          <mxGeometry width="50" height="50" relative="1" as="geometry">
            <mxPoint x="790" y="220" as="sourcePoint" />
            <mxPoint x="840" y="170" as="targetPoint" />
          </mxGeometry>
        </mxCell>
        <mxCell id="EnIrzSGiJKHDA6qVVZ54-1" value="S" style="text;html=1;align=center;verticalAlign=middle;whiteSpace=wrap;rounded=0;" vertex="1" parent="1">
          <mxGeometry x="290" y="-30" width="60" height="30" as="geometry" />
        </mxCell>
        <mxCell id="EnIrzSGiJKHDA6qVVZ54-2" value="b" style="text;html=1;align=center;verticalAlign=middle;whiteSpace=wrap;rounded=0;" vertex="1" parent="1">
          <mxGeometry x="150" y="60" width="60" height="30" as="geometry" />
        </mxCell>
        <mxCell id="EnIrzSGiJKHDA6qVVZ54-3" value="" style="endArrow=none;html=1;rounded=0;entryX=0.5;entryY=1;entryDx=0;entryDy=0;" edge="1" parent="1" source="Z2BE-C4bj-5tcC9fpLzT-1" target="EnIrzSGiJKHDA6qVVZ54-1">
          <mxGeometry width="50" height="50" relative="1" as="geometry">
            <mxPoint x="250" y="166" as="sourcePoint" />
            <mxPoint x="470" y="100" as="targetPoint" />
          </mxGeometry>
        </mxCell>
        <mxCell id="EnIrzSGiJKHDA6qVVZ54-4" value="" style="endArrow=none;html=1;rounded=0;entryX=0.5;entryY=1;entryDx=0;entryDy=0;" edge="1" parent="1" source="EnIrzSGiJKHDA6qVVZ54-2" target="EnIrzSGiJKHDA6qVVZ54-1">
          <mxGeometry width="50" height="50" relative="1" as="geometry">
            <mxPoint x="260" y="176" as="sourcePoint" />
            <mxPoint x="480" y="110" as="targetPoint" />
          </mxGeometry>
        </mxCell>
        <mxCell id="EnIrzSGiJKHDA6qVVZ54-5" value="a" style="text;html=1;align=center;verticalAlign=middle;whiteSpace=wrap;rounded=0;" vertex="1" parent="1">
          <mxGeometry x="470" y="150" width="60" height="30" as="geometry" />
        </mxCell>
        <mxCell id="EnIrzSGiJKHDA6qVVZ54-6" value="" style="endArrow=none;html=1;rounded=0;exitX=0.5;exitY=1;exitDx=0;exitDy=0;" edge="1" parent="1" source="Z2BE-C4bj-5tcC9fpLzT-1" target="EnIrzSGiJKHDA6qVVZ54-5">
          <mxGeometry width="50" height="50" relative="1" as="geometry">
            <mxPoint x="470" y="100" as="sourcePoint" />
            <mxPoint x="650" y="164" as="targetPoint" />
          </mxGeometry>
        </mxCell>
        <mxCell id="EnIrzSGiJKHDA6qVVZ54-7" value="S" style="text;html=1;align=center;verticalAlign=middle;whiteSpace=wrap;rounded=0;" vertex="1" parent="1">
          <mxGeometry x="550" y="150" width="60" height="30" as="geometry" />
        </mxCell>
        <mxCell id="EnIrzSGiJKHDA6qVVZ54-8" value="" style="endArrow=none;html=1;rounded=0;exitX=0.5;exitY=1;exitDx=0;exitDy=0;" edge="1" parent="1" source="Z2BE-C4bj-5tcC9fpLzT-1" target="EnIrzSGiJKHDA6qVVZ54-7">
          <mxGeometry width="50" height="50" relative="1" as="geometry">
            <mxPoint x="550" y="70" as="sourcePoint" />
            <mxPoint x="502" y="160" as="targetPoint" />
          </mxGeometry>
        </mxCell>
        <mxCell id="EnIrzSGiJKHDA6qVVZ54-9" value="e" style="text;html=1;align=center;verticalAlign=middle;whiteSpace=wrap;rounded=0;" vertex="1" parent="1">
          <mxGeometry x="530" y="260" width="60" height="30" as="geometry" />
        </mxCell>
        <mxCell id="EnIrzSGiJKHDA6qVVZ54-10" value="A" style="text;html=1;align=center;verticalAlign=middle;whiteSpace=wrap;rounded=0;" vertex="1" parent="1">
          <mxGeometry x="530" y="200" width="60" height="30" as="geometry" />
        </mxCell>
        <mxCell id="EnIrzSGiJKHDA6qVVZ54-11" value="" style="endArrow=none;html=1;rounded=0;entryX=0.5;entryY=1;entryDx=0;entryDy=0;" edge="1" parent="1" source="EnIrzSGiJKHDA6qVVZ54-9" target="EnIrzSGiJKHDA6qVVZ54-10">
          <mxGeometry width="50" height="50" relative="1" as="geometry">
            <mxPoint x="600" y="320" as="sourcePoint" />
            <mxPoint x="650" y="270" as="targetPoint" />
          </mxGeometry>
        </mxCell>
        <mxCell id="EnIrzSGiJKHDA6qVVZ54-12" value="" style="endArrow=none;html=1;rounded=0;entryX=0.5;entryY=1;entryDx=0;entryDy=0;" edge="1" parent="1" source="EnIrzSGiJKHDA6qVVZ54-10" target="EnIrzSGiJKHDA6qVVZ54-7">
          <mxGeometry width="50" height="50" relative="1" as="geometry">
            <mxPoint x="570" y="280" as="sourcePoint" />
            <mxPoint x="570" y="250" as="targetPoint" />
          </mxGeometry>
        </mxCell>
        <mxCell id="EnIrzSGiJKHDA6qVVZ54-13" value="b" style="text;html=1;align=center;verticalAlign=middle;whiteSpace=wrap;rounded=0;" vertex="1" parent="1">
          <mxGeometry x="590" y="200" width="60" height="30" as="geometry" />
        </mxCell>
        <mxCell id="EnIrzSGiJKHDA6qVVZ54-14" value="a" style="text;html=1;align=center;verticalAlign=middle;whiteSpace=wrap;rounded=0;" vertex="1" parent="1">
          <mxGeometry x="650" y="200" width="60" height="30" as="geometry" />
        </mxCell>
        <mxCell id="EnIrzSGiJKHDA6qVVZ54-15" value="" style="endArrow=none;html=1;rounded=0;" edge="1" parent="1" source="EnIrzSGiJKHDA6qVVZ54-13">
          <mxGeometry width="50" height="50" relative="1" as="geometry">
            <mxPoint x="579" y="210" as="sourcePoint" />
            <mxPoint x="579" y="180" as="targetPoint" />
          </mxGeometry>
        </mxCell>
        <mxCell id="EnIrzSGiJKHDA6qVVZ54-16" value="" style="endArrow=none;html=1;rounded=0;entryX=0.5;entryY=1;entryDx=0;entryDy=0;" edge="1" parent="1" source="EnIrzSGiJKHDA6qVVZ54-14" target="EnIrzSGiJKHDA6qVVZ54-7">
          <mxGeometry width="50" height="50" relative="1" as="geometry">
            <mxPoint x="589" y="220" as="sourcePoint" />
            <mxPoint x="600" y="200" as="targetPoint" />
          </mxGeometry>
        </mxCell>
      </root>
    </mxGraphModel>
  </diagram>
</mxfile>
